<svg width="16" height="15" viewBox="0 0 16 15" fill="none" xmlns="http://www.w3.org/2000/svg">
<path d="M7.99785 4.99894C6.52888 4.99894 5.3301 6.12282 5.3301 7.5C5.3301 8.87718 6.52888 10.0011 7.99785 10.0011C9.46681 10.0011 10.6656 8.87718 10.6656 7.5C10.6656 6.12282 9.46681 4.99894 7.99785 4.99894ZM15.9991 7.5C15.9991 6.4643 16.0091 5.43798 15.9471 4.40416C15.885 3.20335 15.5928 2.13763 14.6562 1.25953C13.7176 0.379564 12.5829 0.107505 11.302 0.049341C10.1973 -0.00882328 9.10258 0.000558085 7.99985 0.000558085C6.89512 0.000558085 5.80041 -0.00882328 4.69768 0.049341C3.41684 0.107505 2.28009 0.38144 1.34348 1.25953C0.404861 2.1395 0.11467 3.20335 0.0526294 4.40416C-0.00941132 5.43986 0.000595279 6.46618 0.000595279 7.5C0.000595279 8.53382 -0.00941132 9.56202 0.0526294 10.5958C0.11467 11.7967 0.406862 12.8624 1.34348 13.7405C2.28209 14.6204 3.41684 14.8925 4.69768 14.9507C5.80241 15.0088 6.89713 14.9994 7.99985 14.9994C9.10458 14.9994 10.1993 15.0088 11.302 14.9507C12.5829 14.8925 13.7196 14.6186 14.6562 13.7405C15.5948 12.8605 15.885 11.7967 15.9471 10.5958C16.0111 9.56202 15.9991 8.5357 15.9991 7.5ZM7.99785 11.3482C5.72636 11.3482 3.89315 9.62956 3.89315 7.5C3.89315 5.37044 5.72636 3.65177 7.99785 3.65177C10.2693 3.65177 12.1025 5.37044 12.1025 7.5C12.1025 9.62956 10.2693 11.3482 7.99785 11.3482ZM12.2707 4.3929C11.7403 4.3929 11.312 3.99138 11.312 3.49417C11.312 2.99696 11.7403 2.59544 12.2707 2.59544C12.801 2.59544 13.2293 2.99696 13.2293 3.49417C13.2294 3.61223 13.2048 3.72917 13.1566 3.83827C13.1085 3.94738 13.0379 4.04651 12.9489 4.13C12.8598 4.21348 12.7541 4.27968 12.6377 4.32479C12.5213 4.3699 12.3966 4.39305 12.2707 4.3929Z" fill="#333333"/>
</svg>
