<svg width="20" height="19" viewBox="0 0 20 19" fill="none" xmlns="http://www.w3.org/2000/svg">
<path d="M4.54017 19V6.18074H0.252944V19H4.54017ZM2.39711 4.42943C3.89214 4.42943 4.82273 3.44506 4.82273 2.21492C4.79487 0.957049 3.8922 0 2.42548 0C0.958994 0 0 0.957068 0 2.21492C0 3.44512 0.930356 4.42943 2.36912 4.42943H2.39698H2.39711ZM6.91314 19H11.2004V11.8411C11.2004 11.458 11.2282 11.0752 11.3414 10.8013C11.6514 10.0359 12.3568 9.24302 13.5411 9.24302C15.0925 9.24302 15.7131 10.4186 15.7131 12.1419V18.9999H20.0001V11.6495C20.0001 7.71189 17.885 5.87978 15.0642 5.87978C12.7514 5.87978 11.736 7.16459 11.1718 8.03968H11.2005V6.18047H6.91323C6.9695 7.38336 6.91323 18.9997 6.91323 18.9997L6.91314 19Z" fill="#333333"/>
</svg>
